<?xml version="1.0" standalone="no"?>
<!DOCTYPE svg PUBLIC "-//W3C//DTD SVG 20010904//EN"
 "http://www.w3.org/TR/2001/REC-SVG-20010904/DTD/svg10.dtd">
<svg version="1.0" xmlns="http://www.w3.org/2000/svg"
 width="458.000000pt" height="458.000000pt" viewBox="0 0 458.000000 458.000000"
 preserveAspectRatio="xMidYMid meet">
<metadata>
Created by potrace 1.14, written by Peter Selinger 2001-2017
</metadata>
<g transform="translate(0.000000,458.000000) scale(0.100000,-0.100000)"
fill="#000000" stroke="none">
<path d="M2498 4375 c-2 -1 -39 -6 -84 -9 -44 -4 -89 -8 -100 -10 -10 -2 -46
-7 -79 -10 -33 -4 -125 -21 -205 -37 -80 -16 -179 -36 -220 -44 -41 -7 -86
-16 -100 -19 -125 -24 -340 -105 -490 -183 -95 -50 -267 -157 -316 -196 -10
-8 -48 -39 -84 -68 -95 -77 -276 -263 -345 -355 -205 -271 -342 -552 -396
-804 -24 -116 -32 -358 -15 -480 5 -36 10 -75 10 -87 1 -11 4 -19 9 -16 4 2 7
-7 7 -20 0 -40 54 -194 106 -301 7 -16 11 -33 7 -39 -3 -5 -2 -7 4 -4 13 8 36
-40 27 -56 -4 -7 -3 -8 1 -4 5 4 23 -17 39 -46 39 -67 155 -231 196 -275 17
-19 27 -39 24 -45 -4 -7 -4 -9 0 -5 12 10 201 -184 198 -202 -3 -13 -2 -13 7
0 10 13 15 8 12 -12 0 -4 6 -5 14 -2 8 4 15 2 15 -3 0 -5 7 -18 16 -29 8 -10
12 -12 8 -4 -5 10 -1 9 14 -4 12 -10 19 -23 15 -29 -3 -6 -1 -7 6 -3 6 4 14 0
17 -8 3 -9 9 -14 13 -11 5 2 24 -11 44 -29 21 -19 37 -31 37 -27 0 3 6 -1 13
-9 7 -8 21 -20 32 -27 11 -6 19 -16 18 -22 -2 -6 3 -8 10 -5 7 2 24 -5 38 -17
13 -11 37 -28 52 -36 19 -10 27 -19 23 -30 -5 -12 -3 -13 7 -5 9 8 21 5 45
-10 17 -11 29 -24 26 -29 -3 -5 -10 -6 -16 -3 -7 4 -8 2 -4 -5 6 -9 11 -9 21
-1 11 9 28 3 75 -24 34 -20 65 -36 71 -36 5 0 12 -6 15 -13 2 -7 14 -14 27
-14 12 -1 23 -7 25 -13 2 -5 8 -10 12 -10 14 0 144 -63 151 -73 3 -5 9 -8 13
-8 21 3 34 -1 52 -15 10 -8 13 -12 5 -8 -10 5 -12 3 -6 -5 5 -9 11 -9 17 -3
10 10 55 -3 68 -19 3 -3 26 -11 52 -19 27 -7 48 -17 48 -21 0 -5 3 -8 8 -7 19
6 71 -13 68 -24 -1 -7 -1 -10 1 -5 6 9 35 9 57 1 9 -3 14 -9 11 -14 -2 -4 7
-5 20 -2 14 2 25 0 25 -6 0 -6 9 -9 20 -7 14 3 20 -2 20 -13 0 -14 2 -14 9 -3
5 7 13 11 18 8 5 -3 25 -9 43 -12 19 -3 39 -10 46 -16 6 -5 18 -7 27 -3 8 3
18 1 21 -5 4 -6 13 -8 21 -5 8 3 20 2 27 -2 7 -5 33 -10 58 -12 25 -1 47 -7
48 -13 3 -6 9 -5 18 2 11 9 14 9 14 -1 0 -10 3 -10 14 -1 12 10 19 8 37 -10
16 -16 21 -18 16 -6 -6 15 1 17 61 16 56 -1 98 3 177 15 6 0 9 -4 8 -10 -1 -6
5 -11 12 -11 10 0 12 4 5 12 -14 17 48 29 67 13 11 -9 13 -8 11 3 -2 9 6 14
24 14 14 -1 24 4 21 9 -3 5 5 7 20 4 15 -3 24 -1 21 3 -5 8 0 10 21 9 3 0 19
7 35 15 17 9 30 12 30 8 0 -5 4 -3 8 3 7 10 96 47 108 44 4 -1 10 4 15 11 6
10 11 10 26 -2 16 -13 17 -12 5 2 -10 14 -10 18 4 23 9 3 24 1 33 -6 14 -11
14 -11 4 3 -11 13 -6 19 28 37 23 12 45 19 50 16 5 -3 8 -2 7 3 -2 4 -1 8 2 9
3 0 18 12 34 27 16 15 35 27 43 27 8 0 11 5 8 10 -3 6 -1 10 5 10 6 0 18 7 27
15 8 8 19 13 24 10 5 -4 9 1 9 10 0 9 5 13 10 10 6 -3 10 -2 10 2 0 11 141
128 155 128 5 0 10 5 10 12 0 14 76 89 88 85 5 -1 6 2 3 7 -3 5 7 21 24 34 16
14 30 28 30 31 0 14 44 55 53 49 6 -3 7 -2 4 4 -4 6 8 28 26 49 39 46 130 169
176 237 19 27 37 45 43 41 7 -4 8 -2 4 5 -6 9 47 111 77 146 4 6 19 30 32 55
13 25 28 44 34 43 6 -2 8 3 5 10 -3 8 11 41 30 76 19 34 35 64 35 66 1 5 44
101 66 145 7 14 18 42 24 63 7 20 17 37 21 37 5 0 6 7 3 17 -4 11 -3 14 5 9 7
-4 10 -2 6 7 -3 8 2 20 10 27 9 7 14 16 11 20 -3 4 11 51 29 104 19 53 35 100
35 104 3 31 15 72 21 72 4 0 8 6 7 13 -1 36 4 68 11 64 4 -3 7 7 7 21 1 29 11
92 21 132 3 14 7 95 9 180 6 277 -42 486 -170 745 -215 435 -619 742 -1125
855 -69 15 -147 31 -175 34 -27 4 -66 9 -85 12 -37 6 -476 14 -482 9z"/>
<path d="M3069 383 c-13 -16 -12 -17 4 -4 16 13 21 21 13 21 -2 0 -10 -8 -17
-17z"/>
<path d="M2950 339 c0 -5 5 -7 10 -4 6 3 10 8 10 11 0 2 -4 4 -10 4 -5 0 -10
-5 -10 -11z"/>
<path d="M2056 322 c-3 -4 4 -9 15 -9 23 -2 25 3 4 10 -8 4 -16 3 -19 -1z"/>
</g>
</svg>
